<svg xmlns="http://www.w3.org/2000/svg" viewBox="0 0 1250.54 521.18"><defs><style>.cls-1{fill:#;}</style></defs><title>CASTORONlineline1</title><g id="Capa_4" data-name="Capa 4"><path class="cls-1" d="M279.25,620.9a43.47,43.47,0,1,0-67.62,14.45,48.87,48.87,0,0,0-15.17,22.09,193.73,193.73,0,0,1,44.87-23.57c1-.36,2-.72,3-1.07a86.42,86.42,0,0,1,10.5-2.75c6.83-1.38,14.11-2.22,20.77-2.89s12.8-1.16,17.18-1.83A67,67,0,0,0,279.25,620.9Zm-12.68-1.81c-1.81-.11-3.68-.16-5.6-.13l-1.84,0a24.37,24.37,0,0,0-37.21-31.41l9.7,15.31-16-.22c0,.44,0,.88,0,1.33a24.34,24.34,0,0,0,12.74,21.41,67.91,67.91,0,0,0-6.46,3.05,31.83,31.83,0,1,1,44.73-9.38Z" transform="translate(-34.72 -312.78)"/><path class="cls-1" d="M283.12,539.77s-47.07-11.63-72-3.88C211.13,535.89,243.81,497.13,283.12,539.77Z" transform="translate(-34.72 -312.78)"/><path class="cls-1" d="M359,539.77s47.07-11.63,72-3.88C431,535.89,398.31,497.13,359,539.77Z" transform="translate(-34.72 -312.78)"/><path class="cls-1" d="M430.48,635.35a43.46,43.46,0,1,0-67.62-14.45,67,67,0,0,0-13.56,4.43c4.39.67,10.48,1.16,17.19,1.83s13.93,1.51,20.76,2.89a85.94,85.94,0,0,1,10.5,2.75c1,.35,2,.71,3,1.07a182.87,182.87,0,0,1,19.07,8.2,184.89,184.89,0,0,1,25.8,15.37A48.8,48.8,0,0,0,430.48,635.35Zm-16.67-9.93A24.36,24.36,0,1,0,385,586.79l10,15.83-17.12-.22c0,.53-.05,1.06-.05,1.61A24.24,24.24,0,0,0,383,619l-1.84,0c-1.92,0-3.79,0-5.59.13a31.84,31.84,0,1,1,44.72,9.38A65.67,65.67,0,0,0,413.81,625.42Z" transform="translate(-34.72 -312.78)"/><path class="cls-1" d="M606.26,607.42s0-56.62-.26-69.12c-.22-12.08-8.27-22.07-8.27-22.07-73-191.39-240.89-203.06-275-203.42h-.25c-20.47-.39-202.41,2-279.21,203.41,0,0-8.06,10-8.27,22.07-.22,12.49-.26,69.11-.26,69.11-.07,3.91-1,24,14.44,40.59,0,0,8.25,146.91,152.82,171.1,0,0,6.58,7.51,12.1,8.82s34.47,6,34.47,6c8.58,1.17,33.74-9.26,31.12-28l3.16.55v0c.46.58.95,1.14,1.45,1.67,1.84,1.8,5.63,4.71,12.6,7.15l.68.23,2,.66,11.22,3.77h0c1.52.47,2.9.85,4.17,1.13h0a28.8,28.8,0,0,0,5.47.53h0a29.07,29.07,0,0,0,5.81-.59h0q1.57-.37,3.42-.93a.38.38,0,0,1,.1,0l14.44-4.85c6.82-2.43,10.55-5.3,12.37-7.07.51-.53,1-1.09,1.45-1.67v0h0c.15-.18.29-.37.43-.56h0a146,146,0,0,0,14.57-3.18,9,9,0,0,1,4.56-2.75L396.88,795a227.83,227.83,0,0,0,34.9-16.94l1.27-.77c.43-.26.87-.52,1.3-.8l.2-.11.17-.11h0C475.29,751,498,711.87,498,711.87a33.61,33.61,0,0,0,35.22,3.6c6.28-3.14,9.84-9.47,11.82-14.83a43.13,43.13,0,0,0,2.28-9.07L558,684.42l21-22.37L594.43,645C607.17,629,606.32,611.08,606.26,607.42ZM50.83,623.92a40.92,40.92,0,0,1-2.48-13.78c0-.37,0-.76,0-1.14V579.66c0-18.59-.06-35.92-.06-35.92a34.63,34.63,0,0,1,.22-3.88.59.59,0,0,1,0-.14A34,34,0,0,1,71,511.43l.07,0,22.57-7.53c-.55.24-.92,7.7-.92,7.7l.3,163.7-.15-.15c-.86-.91-5.47-5.77-11.72-12.42C77,658.23,72,652.94,66.94,647.5c-1.24-1.34-2.42-2.65-3.52-3.91-.62-.72-1.21-1.42-1.79-2.11l-.71-.76A47.17,47.17,0,0,1,50.84,624ZM177.45,804.56C113,784.46,69.53,727,59.59,659.41L87,688.56c14.37,46.91,48.53,85,95.76,99.73,3.46,1.08,6.94,2,10.41,2.8q3.28,9.3,6.24,18.66A161.86,161.86,0,0,1,177.45,804.56Zm-4.46-324-18.24,18.1a33.22,33.22,0,0,0-29.61-18.57s14.72-27.5,39.43-51.23C164.57,428.84,154.15,456.29,173,480.54Zm-28.1,31.91-.22,174a19.8,19.8,0,0,1-39.59-.05l.22-174a19.8,19.8,0,1,1,39.59.05Zm55,270.95s-57.16-6.95-92.13-67.95a33.59,33.59,0,0,0,35.22-3.6s23.8,41,66.21,66.22C209.22,778.07,202.41,779.06,199.92,783.4Zm67.17,32.39-4.25,3.75a20.16,20.16,0,0,1-16.75,4.79l-25.22-4.28a16.75,16.75,0,0,1-13.7-13.65l-1.81-10.48a7.49,7.49,0,0,1,9.26-8.52L263.28,800A9.23,9.23,0,0,1,267.09,815.79Zm88-22.84a17.23,17.23,0,0,1-1.18,3.32,16.7,16.7,0,0,1-1.14,2l-.34.5c-.17.26-.36.5-.56.75a3.37,3.37,0,0,1-.3.36l-.3.36c-.09.11-.2.23-.31.34l-.33.34-.32.32c-.18.17-.36.34-.55.5s-.33.29-.51.44-.49.38-.74.57-.47.33-.71.48l-.07,0c-.29.19-.6.37-.9.54h0a14.39,14.39,0,0,1-1.42.7,13.33,13.33,0,0,1-1.52.6l-12.16,4.09a35.35,35.35,0,0,1-11.17,1.85v0a35.22,35.22,0,0,1-11.34-1.85l-12.17-4.09A17.08,17.08,0,0,1,286.55,795a16.85,16.85,0,0,1-.65-2.09l-8-33.18a143.6,143.6,0,0,0,20.49-6.65c4.55-1.86,8.7-3.84,12.46-5.81,2.26,12,4.67,23.61,7,35.4a2.64,2.64,0,0,0,2.4,2.19,2.72,2.72,0,0,0,.57,0l.17,0,.19,0,.12,0,.26-.08.12-.05h0l.26-.14a2.33,2.33,0,0,0,.38-.26l.15-.15a.94.94,0,0,0,.1-.1.76.76,0,0,0,.11-.14,2.8,2.8,0,0,0,.51-1.16c2.34-11.79,4.74-23.44,7-35.41l0,0s0,0,0,0c3.76,2,7.91,4,12.46,5.81a143.51,143.51,0,0,0,20.48,6.65ZM292.38,683.59c0-3.2,12.65-5.79,28.24-5.79s28.25,2.59,28.25,5.79-12.65,5.79-28.25,5.79S292.38,686.79,292.38,683.59ZM421.3,770.71A196.24,196.24,0,0,1,364,793.19h0q5-15.45,9.95-30.91h0v0a59.6,59.6,0,0,0,8.59.83l1.49,0a29.25,29.25,0,0,0,7.52-1l1-.31,1.17-.39h0a28.44,28.44,0,0,0,3.62-1.6q.89-.46,1.74-1c.65-.39,1.28-.82,1.9-1.27l1.42-1.07c.71-.53,1.42-1.1,2.15-1.69l.77-.63,1.12-.94,1.13-1c1.27-1.12,2.57-2.34,3.87-3.63.29-.3.58-.6.88-.89.59-.61,1.17-1.23,1.77-1.87.44-.47.88-1,1.31-1.46l1.32-1.53h0q.87-1,1.74-2.13t1.71-2.25h0l.64-.87c1.47-2.06,2.91-4.25,4.29-6.58a88.63,88.63,0,0,0,8.57-19.74,1.55,1.55,0,0,0-1.86-1.93l-.13,0a.88.88,0,0,0-.2.09,1,1,0,0,0-.28.2.47.47,0,0,0-.14.14,1.09,1.09,0,0,0-.13.17,169.1,169.1,0,0,1-16.33,21l-.81.87h0c-.52.57-1.06,1.14-1.58,1.69l-.8.83,0,0q-1.06,1.1-2.13,2.16c-2.11,2.11-4.21,4.1-6.27,6l-2,1.8c-1,.89-2,1.75-3,2.58a17.8,17.8,0,0,1-2.62,1.82c-.35.2-.7.39-1.06.56l-.55.26c-.36.16-.73.31-1.1.45h0a18.21,18.21,0,0,1-10.32.75A122,122,0,0,1,327.41,723L326,721.47h0l-.17-.18c.18-.09.35-.19.52-.29,2.42-1.48,5-3.2,7.7-5.19l.08-.07a103.86,103.86,0,0,0,21.24-22.24l.18-.27a79.37,79.37,0,0,0,4.4-7.61c2.86-5.66-1.25-12.18-8.23-13.05a258.9,258.9,0,0,0-27.36-1.94c-1.66,0-3.33,0-5,0l-1.63,0a257.1,257.1,0,0,0-28.44,2c-7,.87-11.09,7.39-8.23,13a76.89,76.89,0,0,0,4.05,7.09l.53.76a104.2,104.2,0,0,0,22.06,22.89q3.17,2.43,6.11,4.38a11.4,11.4,0,0,0,1.22.71l-1.43,1.49a121.8,121.8,0,0,1-54.9,27.77A18.4,18.4,0,0,1,243,746.88,167.9,167.9,0,0,1,210,710a1.54,1.54,0,0,0-2.76,1.27A87.52,87.52,0,0,0,215.85,731,89,89,0,0,0,240,757.52a28.88,28.88,0,0,0,17,5.59l1.49,0a59.31,59.31,0,0,0,8.58-.83l10,30.92a196,196,0,0,1-57.32-22.49,186.85,186.85,0,0,1-67.82-68c3.25-4.6,6.62-12.4,6.62-24.87,0-55.07-1.27-111.31-.27-165.73a286.78,286.78,0,0,1,29.91-29.41h0l.16-.13c1.29-1.06,9.91-8,14.93-9.57,10.07-1.47,17.85-11.13,17.85-22.82,0-12.72-9.19-23-20.51-23s-20.51,10.3-20.51,23a24,24,0,0,0,8.38,18.55l-6.08,4.88A41.57,41.57,0,0,1,173.19,447c0-20.95,14.39-37.93,32.12-37.93s32.12,17,32.12,37.93c0,.84,0,1.68-.07,2.51a86.32,86.32,0,0,1,64.05-2.17l16.29,5.85,2.83,1,2.78-1,16.28-5.84a86.34,86.34,0,0,1,64.06,2.17c0-.83-.08-1.67-.08-2.51,0-20.95,14.39-37.93,32.12-37.93s32.12,17,32.12,37.93a41.61,41.61,0,0,1-9,26.38l-4.9-3.94a24,24,0,0,0,8.38-18.55c0-12.72-9.18-23-20.51-23s-20.51,10.3-20.51,23c0,11.69,7.78,21.36,17.85,22.82,3.31,1,8.2,4.42,11.51,6.9a.47.47,0,0,1-.09.06,284.74,284.74,0,0,1,32.26,31.4c1,54.42-.26,110.66-.26,165.73,0,12.47,3.37,20.26,6.62,24.87A187,187,0,0,1,421.3,770.71ZM205.22,397.4S252.17,365.6,317,365.25c1.37,0,2.76,0,4.15,0,.94,0,1.87,0,2.8,0,64.85.34,111.81,32.15,111.81,32.15s-32.56-1.06-42.24,36.35c0,0-29.49-10.87-73,8-43.57-18.93-73.06-8.05-73.06-8.05C237.77,396.34,205.22,397.4,205.22,397.4Zm281,101.25L468,480.56c18.84-24.25,8.41-51.71,8.41-51.71a232.4,232.4,0,0,1,39.44,51.23A33.24,33.24,0,0,0,486.26,498.65Zm29.87,207.61a19.8,19.8,0,0,1-19.8-19.77l-.21-174a19.79,19.79,0,1,1,39.58-.05l.23,174A19.8,19.8,0,0,1,516.13,706.26ZM533.78,484.8h0c-24-44.45-53.53-74.18-82.94-94a233.3,233.3,0,0,0-126.75-39.09H323c-1.1,0-2.19,0-3.29,0a233.48,233.48,0,0,0-129.54,39.11c-29.4,19.85-58.9,49.57-82.94,94v0L65.16,498.64s0,0,0,0a.05.05,0,0,0,0,0A209.45,209.45,0,0,1,76.9,474a.26.26,0,0,0,0-.09,284.18,284.18,0,0,1,53.1-70.1c28.92-28.28,68.78-55.26,122.08-68.53.36-.09.72-.19,1.09-.27a271.08,271.08,0,0,1,64-8.28H321A271.89,271.89,0,0,1,387.79,335l1.08.27C442.17,348.57,482,375.55,511,403.82a283.92,283.92,0,0,1,53.1,70.11.41.41,0,0,1,.05.09,205.94,205.94,0,0,1,11.71,24.55l0,.05a0,0,0,0,1,0,0Zm58.89,94.88V609c0,.38,0,.76,0,1.13a41.37,41.37,0,0,1-2.48,13.78l0,.05a47,47,0,0,1-10.08,16.75l-.7.77q-.87,1-1.8,2.1-1.65,1.9-3.52,3.91c-5.06,5.45-10,10.74-14.24,15.22-6.26,6.65-10.86,11.51-11.73,12.42l-.14.15.29-163.71s-.37-7.45-.92-7.69l22.58,7.52.07,0a34.06,34.06,0,0,1,22.53,28.3.61.61,0,0,1,0,.14,34.59,34.59,0,0,1,.23,3.88S592.69,561.09,592.67,579.68Z" transform="translate(-34.72 -312.78)"/><path class="cls-1" d="M733.33,626.55H663.22A30.93,30.93,0,0,1,642,618.28a28.16,28.16,0,0,1-6.43-9,26.33,26.33,0,0,1-2.37-11.09v-34.4a26,26,0,0,1,2.37-11,29.14,29.14,0,0,1,6.43-9,30.28,30.28,0,0,1,9.52-6.1,30.65,30.65,0,0,1,11.75-2.23h58.95l11.16,22.18H663.22a3.68,3.68,0,0,0-3.09,1.77,7.43,7.43,0,0,0-1.24,4.39v34.3a7.74,7.74,0,0,0,1.24,4.45,3.65,3.65,0,0,0,3.09,1.83h58.95Z" transform="translate(-34.72 -312.78)"/><path class="cls-1" d="M820.63,535.44a30.65,30.65,0,0,1,11.75,2.23,31.09,31.09,0,0,1,9.52,6,28.38,28.38,0,0,1,6.43,8.92,26,26,0,0,1,2.36,11v62.89H825v-26H778.88l-9.45-16.11v42.11H743.69V563.66a26,26,0,0,1,2.37-11,28.38,28.38,0,0,1,6.43-8.92,31,31,0,0,1,9.52-6,30.65,30.65,0,0,1,11.75-2.23Zm-51.2,42.93H825V563.62a7,7,0,0,0-1.25-4.3,3.72,3.72,0,0,0-3.08-1.7H773.76a3.73,3.73,0,0,0-3.09,1.7,7.09,7.09,0,0,0-1.24,4.3Z" transform="translate(-34.72 -312.78)"/><path class="cls-1" d="M894.41,557.62a3.72,3.72,0,0,0-3.09,1.71,7.16,7.16,0,0,0-1.24,4.33,7.46,7.46,0,0,0,1.24,4.4,3.68,3.68,0,0,0,3.08,1.77h40.76a30.91,30.91,0,0,1,11.67,2.23,30.16,30.16,0,0,1,9.56,6.11,29.31,29.31,0,0,1,6.43,9,25.8,25.8,0,0,1,2.35,10.9,26.32,26.32,0,0,1-2.36,11.09,29,29,0,0,1-6.43,9.06,30.56,30.56,0,0,1-21.27,8.34H873.93l-11-22.19h72.21a3.64,3.64,0,0,0,3.08-1.84,7.68,7.68,0,0,0,1.25-4.46,7.08,7.08,0,0,0-1.25-4.33,3.7,3.7,0,0,0-3.08-1.71H894.28a30.28,30.28,0,0,1-11.62-2.23,31,31,0,0,1-9.52-6,28.16,28.16,0,0,1-6.43-9,26.32,26.32,0,0,1-2.36-11.09,26,26,0,0,1,2.37-11,28.5,28.5,0,0,1,6.47-8.92,31,31,0,0,1,9.56-6,30.56,30.56,0,0,1,11.66-2.23h61.05l11,22.18Z" transform="translate(-34.72 -312.78)"/><path class="cls-1" d="M968.85,535.44h77.59l11,22.18h-30.33v68.93h-25.47V557.62H980.14Z" transform="translate(-34.72 -312.78)"/><path class="cls-1" d="M1139.62,535.44a31,31,0,0,1,21.29,8.27,28.41,28.41,0,0,1,6.44,8.92,26,26,0,0,1,2.37,11v34.53a26.33,26.33,0,0,1-2.37,11.09,28.19,28.19,0,0,1-6.44,9,31,31,0,0,1-21.29,8.27h-46.54a31,31,0,0,1-21.29-8.27,28,28,0,0,1-6.44-9,26.33,26.33,0,0,1-2.37-11.09V563.66a26,26,0,0,1,2.37-11,28.26,28.26,0,0,1,6.44-8.92,31,31,0,0,1,21.29-8.27Zm4.36,28.22a6.87,6.87,0,0,0-1.31-4.33,3.86,3.86,0,0,0-3.15-1.71h-46.47a3.71,3.71,0,0,0-3.09,1.71,7.16,7.16,0,0,0-1.25,4.33v34.53a7.47,7.47,0,0,0,1.25,4.4,3.68,3.68,0,0,0,3.09,1.77h46.47a3.83,3.83,0,0,0,3.15-1.77,7.16,7.16,0,0,0,1.31-4.4Z" transform="translate(-34.72 -312.78)"/><path class="cls-1" d="M1283.15,563.66a26.32,26.32,0,0,1-1.85,9.78,28.15,28.15,0,0,1-5.08,8.34,30.33,30.33,0,0,1-17.35,9.71l26.39,35.06h-30.58l-25.8-34.4h-17a3.86,3.86,0,0,0-3.14,1.71,6.87,6.87,0,0,0-1.31,4.33v28.36h-25.74V598.19a26,26,0,0,1,2.37-11,28.43,28.43,0,0,1,6.43-8.93,31.06,31.06,0,0,1,21.27-8.27h41.35a3.65,3.65,0,0,0,3.09-1.83,7.81,7.81,0,0,0,1.25-4.47,7.16,7.16,0,0,0-1.25-4.33,3.71,3.71,0,0,0-3.09-1.71h-61.83l-11-22.18h72.86a30.56,30.56,0,0,1,11.66,2.23,31.21,31.21,0,0,1,9.57,6,28.47,28.47,0,0,1,6.46,8.92A25.82,25.82,0,0,1,1283.15,563.66Z" transform="translate(-34.72 -312.78)"/><path class="cls-1" d="M857.56,639.89a14.85,14.85,0,0,1,10.14,3.94,13.42,13.42,0,0,1,3.07,4.26,12.38,12.38,0,0,1,1.13,5.25V669.8a12.58,12.58,0,0,1-1.13,5.28,13.32,13.32,0,0,1-3.07,4.29,14.77,14.77,0,0,1-4.54,2.88,14.61,14.61,0,0,1-5.6,1.06H835.38a14.61,14.61,0,0,1-5.6-1.06,14.81,14.81,0,0,1-4.55-2.88,13.63,13.63,0,0,1-3.07-4.29A12.57,12.57,0,0,1,821,669.8V653.34a12.37,12.37,0,0,1,1.12-5.25,13.73,13.73,0,0,1,3.07-4.26,14.79,14.79,0,0,1,4.55-2.87,14.62,14.62,0,0,1,5.6-1.07Zm2.08,13.45a3.26,3.26,0,0,0-.63-2.06,1.86,1.86,0,0,0-1.5-.81H835.36a1.78,1.78,0,0,0-1.47.81,3.44,3.44,0,0,0-.59,2.06V669.8a3.58,3.58,0,0,0,.59,2.09,1.75,1.75,0,0,0,1.47.85h22.15a1.83,1.83,0,0,0,1.5-.85,3.39,3.39,0,0,0,.63-2.09Z" transform="translate(-34.72 -312.78)"/><path class="cls-1" d="M902.24,640h25.21v43.36h-11.3l-25.67-26.15v26.15H878.22V640h11.26l25.71,26V650.53H907.5Z" transform="translate(-34.72 -312.78)"/><path class="cls-1" d="M972.87,672.74l-5.38,10.57H935.4V640h12.26v32.79Z" transform="translate(-34.72 -312.78)"/><path class="cls-1" d="M986.13,639.89v43.42H973.87V639.89Z" transform="translate(-34.72 -312.78)"/><path class="cls-1" d="M1016.66,640h25.22v43.36h-11.31l-25.67-26.15v26.15H992.64V640h11.26l25.71,26V650.53h-7.69Z" transform="translate(-34.72 -312.78)"/><path class="cls-1" d="M1094.11,639.89l5.26,10.58H1054l-5.32-10.58Zm-30.46,27a1.77,1.77,0,0,0-1.47.8,3.34,3.34,0,0,0-.6,2v3h32.53l5.26,10.57h-50V669.8a12.28,12.28,0,0,1,1.13-5.26,13.61,13.61,0,0,1,3.06-4.25,14.77,14.77,0,0,1,4.54-2.88,14.58,14.58,0,0,1,5.6-1.06h30.46l5.26,10.57Z" transform="translate(-34.72 -312.78)"/><rect class="cls-1" x="598.44" y="343.56" width="174.82" height="13.48"/><rect class="cls-1" x="1075.72" y="343.56" width="174.82" height="13.48"/></g></svg>